<?xml version="1.0" encoding="utf-8"?>
<!-- Generator: Adobe Illustrator 25.0.0, SVG Export Plug-In . SVG Version: 6.00 Build 0)  -->
<svg version="1.1" id="Layer_1" xmlns="http://www.w3.org/2000/svg" xmlns:xlink="http://www.w3.org/1999/xlink" x="0px" y="0px"
	 viewBox="0 0 5456.2 1201.9" style="enable-background:new 0 0 5456.2 1201.9;" xml:space="preserve">
<style type="text/css">
	.st0{opacity:0.89;enable-background:new    ;}
	.st1{opacity:0.22;enable-background:new    ;}
	.st2{opacity:0.89;}
</style>
<path class="st0" d="M3578.7,199.4l16.8-0.6c0,0.2-0.2,0.4-0.2,0.6H3578.7z"/>
<path class="st1" d="M5606.4,2158.4c0-9.1-1-17.6-1.3-26.6c0,0.7,0.2,1.5,0.2,2.2C5605.8,2142.4,5605.8,2150.1,5606.4,2158.4z"/>
<path class="st0" d="M3581.5-57.1c-0.8,0.5-1.6,1.1-2.2,1.9c-0.6,0.3-1.2,0.4-1.9,0.4c-4.8,0-9.6-0.8-14.2-2.2
	c2.8,0.6,5.7,0.9,8.6,0.8C3575-56.2,3578.3-56.5,3581.5-57.1z"/>
<rect x="4449.5" y="114.8" class="st2" width="191.6" height="987.4"/>
<path class="st2" d="M4900.3,957.9c39.9,21.5,110.6,44.3,178.2,44.3c98.3,0,144.4-40.5,144.4-91.2c0-53.2-38.4-82.3-138.2-112.8
	C4950.9,759,4888,698.2,4888,624.7c0-98.8,96.8-179.9,256.5-179.9c75.2,0,141.3,17.7,182.7,38l-33.8,81.2
	c-29.2-15.2-82.9-35.5-152.2-35.5c-79.8,0-124.4,38-124.4,83.6c0,50.7,44.5,73.5,141.3,103.9c129,40.5,195,93.8,195,185
	c0,107.7-101.4,183.7-278,183.7c-81.4,0-156.7-16.5-208.9-41.8L4900.3,957.9z"/>
<path class="st2" d="M4227.6,563.5c-1.6-23.7-6-47.1-13.2-69.7c13.2-22.4,20.9-49.6,24-58.9c7-24.8,17.8-61.2,3.1-92.9
	c-24.8-55.8-116.9-79.8-168.8-65.1c-17.4-14.5-36.1-27.5-55.8-38.7c-10.1-23.2-25.6-44.1-31-51.9c-15.5-21.7-38-51.1-72-59.7
	c-41.8-10.1-91.4,15.5-123.9,49.6h-0.8c-35.5,0.2-70.8,4.3-105.3,12.3c-23.2-7-49.6-9.3-58.9-10.8c-26.3-2.3-63.4-5.4-92.1,14.7
	s-43.4,60.4-44.9,99.9c-34.9,30.7-64.1,67.4-86,108.4c-7,3.1-13.1,5.4-16.2,7c-23.2,10.8-57.3,26.3-72,58.1
	c-20.9,44.9,2.3,109.2,36.4,147.9c0.9,44.8,9.6,89,25.6,130.9c-2.3,4.7-3.9,8.5-5.4,11.6c-10.9,23.2-27.1,57.3-18.6,90.6
	c17.1,63.4,116.2,103.8,168.1,89.8c18.2,14.5,37.9,27,58.9,37.2c9.3,24.8,26.3,48.8,32.5,56.5c15.5,21.7,37.2,51.9,71.2,59.7
	c48.8,12.4,108.4-24,139.4-65.1c40.5-2.2,80.5-10.5,118.5-24.8c22.4,24,77.5,33.3,92.2,35.6c25.6,3.9,62.7,10.1,92.9-7.7
	c59.7-36.4,67.4-154.8,32.5-194.4c7-10.1,13.2-20.9,19.4-31c24.8-10.8,48.8-30.2,57.3-36.4c20.9-16.3,49.6-40.3,56.5-74.3
	C4299.6,646.4,4266.3,593.7,4227.6,563.5z M3486.5,697.5c-10.9-30.8-16.4-63.3-16.3-96c-0.1-3.4,0.1-6.8,0.8-10.1
	c1.3-50.3,15.7-99.4,41.8-142.5c9.8-17.5,21.5-33.8,34.9-48.8c38.6-42,87.5-73.2,141.8-90.6c32.3-10.3,66-15.6,99.9-15.5h5.4
	c44.9,0.8,88.3,10,127,27.9c110,48,186.6,155.7,186.6,279.6v5.4c-0.7,26.4-4.6,52.7-11.6,78.2c-38,128.6-161.1,223-307.5,223
	c-10,0-20.1-0.8-30.2-1.5c-18.1-1.5-35.9-4.6-53.4-9.3c-64.3-16.4-122-52.4-164.9-103v-0.8C3516.4,765.4,3498,732.8,3486.5,697.5
	L3486.5,697.5z"/>
<path class="st2" d="M3280.8,775.7v0.8c-3.9,22.4-14.7,43.4-31.7,53.4c-18.7,10.9-42.6,7-58.1,4.7c-9.3-1.6-44.1-7-58.1-22.4
	c-23.9,8.8-48.9,14-74.4,15.5c-20.1,26.3-57.3,48.8-88.3,41c-20.9-4.7-34.9-24-44.9-37.2c-8-11.1-14.8-23-20.1-35.6
	c-13.1-6.8-25.6-14.8-37.2-24c-32.5,9.3-94.5-16.3-105.3-56.5c-5.4-20.9,4.6-41.8,11.6-56.5c0.8-2.7,1.9-5.3,3.1-7.8
	c-9.8-26.3-15.3-54-16.3-82.1c-20.9-24-35.6-65-22.4-92.9c9.3-20.1,30.2-29.4,44.9-36.4c3.7-1.3,7.3-2.9,10.8-4.7
	c13.5-25.8,31.6-48.9,53.4-68.1c1.6-24.8,10.8-50.4,28.7-62.8s41-10.8,58.1-9.3c5.4,0.8,22.4,2.3,37.2,7c21.5-5.3,43.6-7.9,65.8-7.7
	h0.8c20.1-21.7,51.1-38,77.4-31.7c21.7,5.4,35.6,24,45.7,38c3.1,4.7,13.2,17.8,19.4,32.5c12.2,7.1,23.8,15.1,34.8,24
	c16.3-3.9,38.7-3.1,59.7,3.9c-26.3,27.9-47.2,66.6-59.7,112.3c-20.5-39.1-53.9-70-94.5-87.5c-24.8-11.6-51.9-17-79.8-17.8h-3.9
	c-57.6,0.4-112.5,24.5-151.8,66.6c-8.4,9.5-15.6,19.9-21.7,31c-16.6,27.1-25.7,58.1-26.3,89.8c-0.6,2-0.9,4.1-0.8,6.2
	c-0.3,20.6,3.2,41,10.1,60.4c7.6,22,19.2,42.5,34.1,60.4v0.8c27,31.8,63.3,54.2,103.8,64.3c11.1,3.3,22.5,5.4,34.1,6.2
	c6.2,0.6,12.4,0.9,18.7,0.8c76.7,0,143.3-41.8,176.6-102.2C3227.4,702.9,3250.6,746.3,3280.8,775.7z"/>
<ellipse class="st2" cx="3789.7" cy="605.6" rx="167.2" ry="160.6"/>
<ellipse class="st2" cx="3037.7" cy="555.4" rx="100.5" ry="96.6"/>
<path class="st2" d="M46.8,1113.3L257.3,66.6h17.5l382.5,660l360.8-660h18.2L1248,1113.3h-230l-86-462.9l-272,499.9h-16.1
	L351.6,643.5l-88.8,469.8H46.8z"/>
<path class="st2" d="M1453.7,1138.3V322.6h241.9v815.8L1453.7,1138.3z"/>
<path class="st2" d="M1453.7,217.6V78.7h241.9v138.9H1453.7z"/>
<path class="st2" d="M2190.3,1138.3V290.6h-322.4v-224h885.2v224h-320.9v847.7L2190.3,1138.3z"/>
<text transform="matrix(1 0 0 1 907.3342 1879.1636)" style="fill:#FFFFFF; font-family:'Geometric415BT-BlackA'; font-size:568.5639px;">MITCHIGAN</text>
</svg>
